<svg xmlns="http://www.w3.org/2000/svg" width="240" height="240" viewBox="0 0 270 270" class="svgClass">
<defs>
<radialGradient id="a" r="53.316%" fx="50%" fy="50%"
  gradientTransform="matrix(0 1 -.99999 0 1 0)">
  <stop offset="100%" stop-color="#00A3E0" stop-opacity=".1"></stop>
  <stop offset="100%" stop-color="#00A3E0" stop-opacity=".0"></stop>
</radialGradient>  
</defs>  
<path fill-rule="evenodd" d="M 145.481 6.53 c 0 3.606 -4.693 6.53 -10.481 6.53 c -5.789 0 -10.481 -2.924 -10.481 -6.53 c 0 -3.607 4.692 -6.53 10.48 -6.53 c 5.79 0 10.482 2.923 10.482 6.53 Z m 0 256.936 c 0 3.606 -4.693 6.53 -10.481 6.53 c -5.789 0 -10.481 -2.924 -10.481 -6.53 c 0 -3.606 4.692 -6.53 10.48 -6.53 c 5.79 0 10.482 2.924 10.482 6.53 Z m 117.99 -117.987 c -3.607 0 -6.53 -4.693 -6.53 -10.481 c 0 -5.789 2.923 -10.481 6.53 -10.481 c 3.606 0 6.529 4.692 6.529 10.48 c 0 5.79 -2.923 10.482 -6.53 10.482 Z m -256.942 0 C 2.923 145.48 0 140.786 0 134.998 c 0 -5.789 2.923 -10.481 6.53 -10.481 c 3.606 0 6.53 4.692 6.53 10.48 c 0 5.79 -2.924 10.482 -6.53 10.482 Z m 226.725 -93.91 c -2.55 2.55 -7.935 1.298 -12.029 -2.795 c -4.093 -4.093 -5.344 -9.478 -2.794 -12.028 c 2.55 -2.55 7.935 -1.3 12.028 2.794 c 4.094 4.093 5.345 9.479 2.795 12.029 Z M 51.569 233.25 c -2.55 2.55 -7.935 1.299 -12.029 -2.794 c -4.093 -4.094 -5.344 -9.479 -2.794 -12.029 c 2.55 -2.55 7.936 -1.298 12.029 2.795 s 5.344 9.478 2.794 12.028 Z m 166.862 0 c -2.55 -2.55 -1.3 -7.935 2.794 -12.028 c 4.093 -4.093 9.479 -5.345 12.029 -2.795 c 2.55 2.55 1.299 7.935 -2.795 12.029 c -4.093 4.093 -9.478 5.344 -12.028 2.794 Z M 36.746 51.57 c -2.55 -2.55 -1.299 -7.936 2.794 -12.029 c 4.094 -4.093 9.48 -5.344 12.029 -2.794 c 2.55 2.55 1.299 7.935 -2.794 12.028 c -4.094 4.093 -9.479 5.345 -12.029 2.795 Z m 158.108 -30.727 c -1.41 3.32 -6.871 4.176 -12.2 1.914 c -5.328 -2.262 -8.505 -6.787 -7.096 -10.106 c 1.409 -3.32 6.871 -4.177 12.2 -1.914 c 5.328 2.262 8.505 6.787 7.096 10.106 Z M 94.442 257.346 c -1.41 3.32 -6.872 4.176 -12.2 1.914 c -5.328 -2.262 -8.505 -6.787 -7.096 -10.106 c 1.41 -3.32 6.871 -4.176 12.2 -1.914 c 5.328 2.262 8.505 6.787 7.096 10.106 Z m 154.716 -62.495 c -3.32 -1.41 -4.177 -6.871 -1.914 -12.2 c 2.262 -5.328 6.787 -8.505 10.106 -7.096 c 3.32 1.41 4.176 6.872 1.914 12.2 c -2.262 5.328 -6.787 8.505 -10.106 7.096 Z M 12.65 94.441 c -3.32 -1.41 -4.177 -6.872 -1.914 -12.2 c 2.262 -5.328 6.787 -8.505 10.106 -7.096 c 3.32 1.41 4.176 6.871 1.914 12.2 c -2.262 5.328 -6.787 8.505 -10.106 7.096 Z M 258.045 96.6 c -3.344 1.35 -7.812 -1.905 -9.98 -7.273 c -2.168 -5.367 -1.215 -10.813 2.128 -12.164 c 3.344 -1.35 7.812 1.906 9.98 7.273 s 1.216 10.813 -2.128 12.164 Z M 19.806 192.833 c -3.343 1.35 -7.811 -1.906 -9.98 -7.273 c -2.168 -5.367 -1.215 -10.813 2.13 -12.164 c 3.343 -1.35 7.811 1.905 9.98 7.273 c 2.167 5.367 1.214 10.813 -2.13 12.164 Z M 173.4 258.04 c -1.351 -3.344 1.905 -7.812 7.273 -9.98 c 5.367 -2.168 10.813 -1.215 12.163 2.129 c 1.351 3.343 -1.905 7.811 -7.272 9.98 c -5.367 2.167 -10.814 1.215 -12.164 -2.13 Z M 77.164 19.806 c -1.35 -3.343 1.906 -7.811 7.273 -9.98 c 5.368 -2.168 10.814 -1.214 12.164 2.129 c 1.351 3.344 -1.905 7.812 -7.273 9.98 c -5.367 2.168 -10.813 1.215 -12.164 -2.129 Z m 138.041 14.29 c -2.007 2.996 -7.533 2.813 -12.342 -0.409 c -4.81 -3.221 -7.082 -8.262 -5.075 -11.258 c 2.008 -2.996 7.534 -2.813 12.343 0.409 c 4.81 3.221 7.081 8.261 5.074 11.258 Z M 72.211 247.566 c -2.007 2.996 -7.533 2.814 -12.342 -0.407 c -4.81 -3.222 -7.081 -8.263 -5.075 -11.259 c 2.008 -2.996 7.533 -2.813 12.343 0.408 c 4.81 3.222 7.081 8.263 5.074 11.259 Z m 163.693 -32.364 c -2.996 -2.007 -2.813 -7.533 0.408 -12.342 c 3.222 -4.81 8.262 -7.081 11.258 -5.074 c 2.997 2.007 2.814 7.532 -0.408 12.342 c -3.221 4.809 -8.262 7.08 -11.258 5.074 Z M 22.43 72.21 c -2.997 -2.006 -2.814 -7.532 0.408 -12.342 c 3.221 -4.809 8.262 -7.08 11.258 -5.074 c 2.996 2.007 2.813 7.532 -0.408 12.342 c -3.222 4.81 -8.262 7.081 -11.258 5.074 Z m 240.634 48.152 c -3.538 0.7 -7.316 -3.337 -8.439 -9.016 c -1.123 -5.679 0.835 -10.85 4.372 -11.548 c 3.538 -0.7 7.316 3.336 8.439 9.015 c 1.123 5.679 -0.835 10.85 -4.372 11.549 Z M 11.003 170.198 c -3.538 0.7 -7.316 -3.337 -8.44 -9.015 c -1.122 -5.68 0.836 -10.85 4.373 -11.549 c 3.538 -0.7 7.316 3.337 8.439 9.016 c 1.123 5.678 -0.835 10.85 -4.372 11.548 Z m 138.633 92.861 c -0.7 -3.537 3.337 -7.315 9.016 -8.438 c 5.679 -1.123 10.85 0.835 11.549 4.372 c 0.7 3.538 -3.337 7.316 -9.016 8.44 c -5.679 1.122 -10.85 -0.836 -11.549 -4.374 Z M 99.799 11.002 c -0.7 -3.537 3.337 -7.315 9.015 -8.438 c 5.68 -1.123 10.85 0.835 11.55 4.372 c 0.7 3.538 -3.337 7.316 -9.016 8.439 c -5.68 1.123 -10.85 -0.835 -11.55 -4.373 Z m 148.01 61.639 c -3.003 1.995 -8.035 -0.296 -11.238 -5.117 c -3.203 -4.822 -3.365 -10.349 -0.361 -12.344 c 3.003 -1.995 8.035 0.296 11.238 5.117 c 3.203 4.822 3.365 10.348 0.362 12.344 Z M 33.79 214.816 c -3.004 1.996 -8.035 -0.296 -11.239 -5.117 c -3.203 -4.822 -3.364 -10.349 -0.36 -12.344 c 3.003 -1.996 8.035 0.296 11.238 5.117 c 3.204 4.822 3.365 10.348 0.361 12.344 Z m 163.568 32.99 c -1.996 -3.004 0.295 -8.036 5.117 -11.239 c 4.822 -3.203 10.349 -3.365 12.344 -0.361 c 1.996 3.003 -0.296 8.035 -5.117 11.238 c -4.822 3.204 -10.349 3.365 -12.344 0.361 Z M 55.181 33.79 c -1.996 -3.004 0.295 -8.035 5.117 -11.239 c 4.822 -3.203 10.348 -3.364 12.344 -0.36 c 1.995 3.003 -0.296 8.035 -5.117 11.238 c -4.822 3.203 -10.349 3.365 -12.344 0.361 Z m 203.681 136.882 c -3.535 -0.713 -5.473 -5.891 -4.328 -11.565 c 1.144 -5.675 4.938 -9.697 8.473 -8.984 c 3.535 0.713 5.473 5.891 4.328 11.565 c -1.144 5.675 -4.938 9.697 -8.473 8.984 Z M 6.993 119.873 c -3.535 -0.713 -5.473 -5.89 -4.328 -11.565 c 1.144 -5.675 4.938 -9.697 8.473 -8.984 c 3.535 0.713 5.473 5.89 4.328 11.565 c -1.144 5.675 -4.938 9.697 -8.473 8.984 Z m 92.332 138.985 c 0.713 -3.535 5.892 -5.473 11.566 -4.328 c 5.674 1.144 9.697 4.938 8.984 8.473 c -0.713 3.534 -5.891 5.472 -11.566 4.328 c -5.674 -1.145 -9.697 -4.938 -8.984 -8.473 Z m 50.8 -251.865 c 0.713 -3.535 5.891 -5.473 11.566 -4.328 c 5.674 1.145 9.697 4.938 8.983 8.473 c -0.713 3.535 -5.89 5.473 -11.565 4.328 c -5.675 -1.144 -9.697 -4.938 -8.984 -8.473 Z m -4.239 19.329 c 0 4.635 -4.905 8.392 -10.957 8.392 c -6.05 0 -10.956 -3.757 -10.956 -8.392 s 4.905 -8.392 10.956 -8.392 c 6.052 0 10.957 3.757 10.957 8.392 Z m 0 217.216 c 0 4.634 -4.905 8.392 -10.957 8.392 c -6.05 0 -10.956 -3.758 -10.956 -8.392 c 0 -4.635 4.905 -8.393 10.956 -8.393 c 6.052 0 10.957 3.758 10.957 8.393 Z m 97.652 -97.652 c -4.635 0 -8.393 -4.905 -8.393 -10.956 c 0 -6.051 3.758 -10.957 8.393 -10.957 c 4.634 0 8.392 4.906 8.392 10.957 c 0 6.05 -3.758 10.956 -8.392 10.956 Z m -217.216 0 c -4.635 0 -8.392 -4.905 -8.392 -10.956 c 0 -6.051 3.757 -10.957 8.392 -10.957 s 8.392 4.906 8.392 10.957 c 0 6.05 -3.757 10.956 -8.392 10.956 Z M 219.474 65.88 c -3.277 3.277 -9.402 2.466 -13.681 -1.813 c -4.28 -4.28 -5.091 -10.405 -1.814 -13.682 c 3.278 -3.278 9.403 -2.466 13.682 1.813 s 5.09 10.405 1.813 13.682 Z M 65.88 219.475 c -3.278 3.277 -9.403 2.465 -13.682 -1.814 s -5.09 -10.404 -1.813 -13.681 c 3.277 -3.278 9.403 -2.466 13.682 1.813 c 4.278 4.279 5.09 10.404 1.813 13.682 Z m 138.1 0 c -3.278 -3.278 -2.466 -9.403 1.813 -13.682 c 4.279 -4.28 10.404 -5.09 13.681 -1.813 c 3.278 3.277 2.466 9.402 -1.813 13.681 s -10.404 5.09 -13.682 1.814 Z M 50.384 65.88 c -3.278 -3.277 -2.466 -9.403 1.813 -13.682 s 10.404 -5.09 13.682 -1.813 c 3.277 3.277 2.465 9.403 -1.813 13.682 c -4.28 4.279 -10.405 5.09 -13.682 1.813 Z M 173.51 32.816 c -1.195 4.478 -6.903 6.844 -12.75 5.284 c -5.847 -1.56 -9.618 -6.454 -8.423 -10.932 c 1.194 -4.479 6.903 -6.845 12.75 -5.285 c 5.846 1.56 9.618 6.454 8.423 10.933 Z m -55.988 209.876 c -1.194 4.478 -6.902 6.844 -12.75 5.284 c -5.846 -1.56 -9.617 -6.454 -8.423 -10.932 c 1.195 -4.479 6.903 -6.845 12.75 -5.285 c 5.847 1.56 9.618 6.455 8.423 10.933 Z m 119.522 -69.182 c -4.478 -1.195 -6.845 -6.903 -5.285 -12.75 c 1.56 -5.846 6.455 -9.618 10.933 -8.423 c 4.478 1.194 6.844 6.903 5.284 12.75 c -1.56 5.846 -6.454 9.618 -10.932 8.423 Z M 27.167 117.522 c -4.478 -1.194 -6.844 -6.902 -5.284 -12.75 c 1.56 -5.846 6.454 -9.617 10.932 -8.423 c 4.479 1.195 6.845 6.903 5.285 12.75 c -1.56 5.847 -6.454 9.618 -10.933 8.423 Z m 207.249 -27.517 c -4.012 2.321 -9.721 -0.042 -12.752 -5.279 c -3.032 -5.237 -2.237 -11.365 1.774 -13.687 c 4.011 -2.322 9.72 0.042 12.752 5.279 c 3.031 5.237 2.237 11.365 -1.774 13.687 Z M 46.42 198.82 c -4.011 2.322 -9.72 -0.04 -12.752 -5.278 c -3.031 -5.237 -2.236 -11.365 1.775 -13.687 c 4.01 -2.322 9.72 0.041 12.752 5.278 c 3.031 5.237 2.237 11.366 -1.775 13.687 Z m 133.434 35.596 c -2.322 -4.012 0.04 -9.721 5.278 -12.752 c 5.237 -3.032 11.365 -2.237 13.687 1.774 c 2.322 4.01 -0.041 9.72 -5.278 12.752 c -5.237 3.031 -11.366 2.237 -13.687 -1.774 Z M 71.039 46.422 c -2.322 -4.012 0.041 -9.721 5.278 -12.752 c 5.237 -3.032 11.365 -2.237 13.688 1.774 c 2.321 4.011 -0.042 9.72 -5.28 12.752 c -5.236 3.031 -11.364 2.237 -13.686 -1.774 Z m 126.316 -1.04 c -2.256 4.049 -8.37 4.944 -13.656 2 c -5.287 -2.946 -7.744 -8.615 -5.488 -12.664 c 2.256 -4.05 8.37 -4.944 13.656 -2 c 5.286 2.945 7.743 8.615 5.488 12.664 Z M 91.648 235.142 c -2.255 4.049 -8.37 4.944 -13.656 1.999 c -5.286 -2.945 -7.743 -8.614 -5.487 -12.663 c 2.255 -4.05 8.369 -4.945 13.655 -2 c 5.287 2.945 7.744 8.615 5.488 12.664 Z m 132.83 -37.787 c -4.05 -2.256 -4.945 -8.37 -2 -13.656 c 2.945 -5.287 8.614 -7.744 12.664 -5.488 c 4.049 2.256 4.944 8.37 1.999 13.656 c -2.945 5.286 -8.614 7.743 -12.664 5.488 Z M 34.717 91.648 c -4.05 -2.255 -4.945 -8.369 -2 -13.655 c 2.945 -5.287 8.614 -7.744 12.664 -5.488 c 4.049 2.255 4.944 8.37 1.999 13.656 c -2.945 5.286 -8.614 7.743 -12.663 5.487 Z m 207.673 24.103 c -4.458 1.268 -9.415 -2.422 -11.07 -8.242 c -1.656 -5.82 0.616 -11.567 5.074 -12.835 c 4.458 -1.268 9.414 2.422 11.07 8.242 c 1.656 5.82 -0.616 11.567 -5.074 12.835 Z M 33.465 175.186 c -4.459 1.268 -9.415 -2.422 -11.07 -8.243 c -1.656 -5.82 0.616 -11.566 5.073 -12.835 c 4.459 -1.268 9.415 2.422 11.07 8.243 c 1.656 5.82 -0.615 11.566 -5.073 12.835 Z m 120.643 67.205 c -1.268 -4.458 2.422 -9.415 8.243 -11.07 c 5.82 -1.656 11.566 0.616 12.835 5.074 c 1.268 4.458 -2.422 9.414 -8.243 11.07 c -5.82 1.656 -11.566 -0.617 -12.835 -5.074 Z M 94.674 33.465 c -1.269 -4.458 2.421 -9.414 8.242 -11.07 c 5.82 -1.656 11.566 0.616 12.835 5.074 c 1.268 4.458 -2.422 9.414 -8.242 11.07 c -5.82 1.656 -11.567 -0.616 -12.835 -5.074 Z m 52.518 14.999 c 0 5.213 -5.292 9.44 -11.82 9.44 c -6.527 0 -11.819 -4.227 -11.819 -9.44 c 0 -5.214 5.292 -9.44 11.82 -9.44 c 6.527 0 11.819 4.226 11.819 9.44 Z m 0 171.707 c 0 5.214 -5.292 9.44 -11.82 9.44 c -6.527 0 -11.819 -4.226 -11.819 -9.44 c 0 -5.213 5.292 -9.44 11.82 -9.44 c 6.527 0 11.819 4.227 11.819 9.44 Z m 74.034 -74.034 c -5.213 0 -9.44 -5.292 -9.44 -11.82 c 0 -6.527 4.227 -11.819 9.44 -11.819 c 5.214 0 9.44 5.292 9.44 11.82 c 0 6.527 -4.226 11.819 -9.44 11.819 Z m -171.708 0 c -5.213 0 -9.44 -5.292 -9.44 -11.82 c 0 -6.527 4.227 -11.819 9.44 -11.819 c 5.214 0 9.44 5.292 9.44 11.82 c 0 6.527 -4.226 11.819 -9.44 11.819 Z m 154.92 -64.17 c -3.687 3.687 -10.417 2.934 -15.033 -1.682 s -5.37 -11.346 -1.682 -15.033 c 3.686 -3.687 10.417 -2.933 15.032 1.683 c 4.616 4.615 5.37 11.346 1.683 15.032 Z M 83.022 203.383 c -3.686 3.686 -10.417 2.934 -15.033 -1.682 c -4.615 -4.616 -5.369 -11.347 -1.682 -15.033 c 3.687 -3.687 10.417 -2.933 15.033 1.682 c 4.615 4.616 5.368 11.346 1.682 15.033 Z m 104.7 0 c -3.686 -3.687 -2.933 -10.417 1.683 -15.033 c 4.616 -4.615 11.346 -5.369 15.032 -1.682 c 3.688 3.686 2.934 10.417 -1.682 15.033 c -4.615 4.616 -11.346 5.368 -15.033 1.682 Z M 66.307 81.967 c -3.687 -3.686 -2.933 -10.417 1.682 -15.032 c 4.616 -4.616 11.347 -5.37 15.033 -1.683 c 3.687 3.687 2.933 10.417 -1.682 15.033 c -4.616 4.616 -11.346 5.369 -15.033 1.682 Z m 113.187 -22.24 c -2.018 4.807 -8.532 6.657 -14.552 4.13 c -6.019 -2.526 -9.263 -8.47 -7.245 -13.278 s 8.532 -6.657 14.551 -4.131 c 6.02 2.526 9.264 8.471 7.246 13.278 Z m -66.446 158.33 c -2.018 4.807 -8.533 6.657 -14.552 4.13 c -6.019 -2.526 -9.263 -8.47 -7.245 -13.278 c 2.017 -4.808 8.532 -6.657 14.551 -4.13 c 6.02 2.525 9.263 8.47 7.246 13.278 Z m 96.916 -39.618 c -4.808 -2.017 -6.657 -8.532 -4.132 -14.551 c 2.527 -6.02 8.472 -9.263 13.28 -7.246 c 4.807 2.018 6.656 8.533 4.13 14.552 s -8.47 9.263 -13.278 7.245 Z m -158.33 -66.446 c -4.808 -2.018 -6.658 -8.533 -4.131 -14.552 c 2.526 -6.019 8.47 -9.263 13.278 -7.245 c 4.808 2.017 6.657 8.532 4.13 14.551 c -2.525 6.02 -8.47 9.264 -13.278 7.246 Z m 166.98 -1.785 c -4.762 2.12 -10.776 -0.996 -13.43 -6.96 s -0.944 -12.517 3.82 -14.636 c 4.762 -2.12 10.776 0.996 13.43 6.96 c 2.654 5.963 0.944 12.516 -3.82 14.636 Z M 61.742 180.024 c -4.763 2.12 -10.776 -0.996 -13.43 -6.96 s -0.944 -12.517 3.819 -14.637 c 4.763 -2.12 10.776 0.997 13.43 6.96 c 2.655 5.964 0.945 12.517 -3.819 14.637 Z m 97.74 37.536 c -2.12 -4.763 0.997 -10.776 6.96 -13.43 c 5.965 -2.655 12.518 -0.945 14.637 3.819 c 2.12 4.763 -0.996 10.776 -6.96 13.43 c -5.963 2.654 -12.516 0.944 -14.636 -3.819 Z M 89.667 60.687 c -2.12 -4.764 0.996 -10.777 6.96 -13.43 c 5.964 -2.655 12.517 -0.945 14.636 3.818 c 2.12 4.764 -0.996 10.776 -6.959 13.43 c -5.964 2.655 -12.517 0.945 -14.637 -3.818 Z m 57.445 14.494 c 0 5.99 -5.3 10.846 -11.838 10.846 c -6.538 0 -11.837 -4.856 -11.837 -10.846 s 5.3 -10.845 11.837 -10.845 c 6.538 0 11.838 4.855 11.838 10.845 Z m 0 118.074 c 0 5.99 -5.3 10.846 -11.838 10.846 c -6.538 0 -11.837 -4.856 -11.837 -10.846 s 5.3 -10.845 11.837 -10.845 c 6.538 0 11.838 4.855 11.838 10.845 Z m 47.199 -47.2 c -5.99 0 -10.846 -5.3 -10.846 -11.837 c 0 -6.538 4.856 -11.837 10.846 -11.837 s 10.845 5.3 10.845 11.837 c 0 6.538 -4.855 11.838 -10.845 11.838 Z m -118.074 0 c -5.99 0 -10.845 -5.3 -10.845 -11.837 c 0 -6.538 4.855 -11.837 10.845 -11.837 s 10.846 5.3 10.846 11.837 c 0 6.538 -4.856 11.838 -10.846 11.838 Z m 98.594 -57.232 c -2.97 5.201 -9.98 6.79 -15.658 3.547 c -5.677 -3.242 -7.872 -10.087 -4.901 -15.288 c 2.97 -5.201 9.98 -6.79 15.658 -3.548 c 5.677 3.242 7.871 10.088 4.9 15.289 Z m -58.555 102.532 c -2.97 5.201 -9.98 6.79 -15.658 3.547 c -5.677 -3.242 -7.871 -10.087 -4.9 -15.289 c 2.97 -5.2 9.98 -6.789 15.657 -3.547 c 5.677 3.242 7.872 10.087 4.901 15.289 Z m 64.393 -17.58 c -5.2 -2.97 -6.79 -9.98 -3.547 -15.658 c 3.242 -5.677 10.087 -7.871 15.288 -4.901 c 5.202 2.97 6.79 9.98 3.548 15.658 c -3.242 5.677 -10.087 7.871 -15.289 4.9 Z M 78.137 115.22 c -5.202 -2.97 -6.79 -9.98 -3.548 -15.658 c 3.242 -5.677 10.087 -7.871 15.289 -4.9 c 5.2 2.97 6.79 9.98 3.547 15.657 c -3.242 5.678 -10.087 7.872 -15.288 4.901 Z m 113.972 -0.88 c -5.154 3.05 -12.033 0.962 -15.362 -4.664 c -3.33 -5.627 -1.85 -12.66 3.305 -15.711 c 5.155 -3.05 12.033 -0.962 15.363 4.664 c 3.329 5.627 1.849 12.66 -3.306 15.711 Z M 90.494 174.472 c -5.155 3.05 -12.033 0.962 -15.363 -4.665 c -3.329 -5.626 -1.849 -12.66 3.306 -15.71 c 5.155 -3.051 12.033 -0.963 15.362 4.664 c 3.33 5.626 1.85 12.66 -3.305 15.71 Z m 64.657 16.582 c -3.05 -5.154 -0.962 -12.032 4.664 -15.362 c 5.627 -3.33 12.661 -1.85 15.711 3.305 c 3.05 5.155 0.962 12.033 -4.664 15.363 c -5.626 3.33 -12.66 1.85 -15.71 -3.306 Z M 95.02 89.44 c -3.05 -5.155 -0.962 -12.033 4.664 -15.362 c 5.627 -3.33 12.66 -1.85 15.711 3.305 c 3.05 5.155 0.962 12.033 -4.665 15.363 c -5.626 3.329 -12.66 1.849 -15.71 -3.306 Z"></path>
</svg>
