<svg xmlns="http://www.w3.org/2000/svg" width="24" height="24" viewBox="0 0 24 24" fill="none" >
<g fill="none" fill-rule="evenodd" stroke="#99ADBD" stroke-linecap="round" stroke-linejoin="round" stroke-width="1.9" >
<path fill="none" stroke="#99ADBD" stroke-linecap="round" stroke-linejoin="round" stroke-width="1.9" d="M19.16 21.16c-8.36 0-15.161-7.048-15.161-15.71 0-.77.612-1.397 1.365-1.397h3.018c.753 0 1.366.627 1.366 1.397a9.93 9.93 0 00.468 3.04 1.436 1.436 0 01-.333 1.416l-.67.72a12.913 12.913 0 004.974 5.18l.646-.697c.26-.27.614-.422.977-.422.15 0 .299.025.44.075.93.318 1.91.481 2.91.481.752 0 1.364.627 1.364 1.397v3.123c0 .77-.612 1.397-1.365 1.397z" class="change-color"></path>
</g>
</svg>
