<svg xmlns="http://www.w3.org/2000/svg" width="24" height="24" viewBox="0 0 24 24" fill="none" >
<g fill="none" fill-rule="evenodd" stroke="#99ADBD" stroke-linecap="round" stroke-linejoin="round" stroke-width="1.9" >
<path stroke-width="1.9" d="M9.6 4.587h12m-7.805 5.32H21.6m-6 5.32h6m-11.409 5.32H21.6"></path>
<circle cx="8.91" cy="14.216" r="6.332" stroke-width="1.9"></circle>
<path stroke-width="1.4" d="M7.035 15.602c0 .767.792 1.39 1.767 1.39.975 0 1.768-.623 1.768-1.39 0-.768-.792-1.39-1.768-1.39-.975 0-1.767-.623-1.767-1.39 0-.768.792-1.39 1.767-1.39.976 0 1.768.622 1.768 1.39M8.753 9.973v1.065m0 6.021v1.066"></path>
</g>
</svg>
