<svg xmlns="http://www.w3.org/2000/svg" width="24" height="24" viewBox="0 0 24 24" fill="none" >
<g fill="none" fill-rule="evenodd" stroke="#99ADBD" stroke-linecap="round" stroke-linejoin="round" stroke-width="1.9" >
<path stroke-width="1.9" d="M13.797 6.168l2.633-2.53a.698.698 0 00-.485-1.204l-8.397-.001a.701.701 0 00-.485 1.205l2.633 2.53c-3.379.898-5.877 3.941-5.877 7.562 0 4.32 3.556 7.836 7.927 7.837 4.37 0 7.926-3.515 7.926-7.837 0-3.62-2.497-6.664-5.875-7.562z"></path>
<path stroke-width="1.4" d="M9.912 14.918c0 .797.821 1.443 1.834 1.443 1.012 0 1.834-.646 1.834-1.443s-.821-1.443-1.834-1.443c-1.013 0-1.834-.646-1.834-1.442 0-.797.821-1.444 1.834-1.444 1.013 0 1.834.647 1.834 1.444m-1.834-3.438v1.92m0 5.969v1.873"></path>
</g>
</svg>
