<svg xmlns="http://www.w3.org/2000/svg" width="24" height="24" viewBox="0 0 24 24" fill="none" >
<g fill="none" fill-rule="evenodd" stroke="#99ADBD" stroke-linecap="round" stroke-linejoin="round" stroke-width="1.9" class="change-color">
<path d="M20.14 18.781H6.51a3 3 0 01-3-3V5.83a3 3 0 013-3h9.87a3 3 0 013 3v3.348"></path>
<path d="M17.53 23.063l4.282-4.282-4.283-4.282m-8.479-1.9c0 1.009 1.041 1.828 2.324 1.828 1.281 0 2.323-.82 2.323-1.828 0-1.01-1.04-1.828-2.323-1.828v.001c-1.283 0-2.323-.819-2.323-1.828 0-1.01 1.04-1.828 2.323-1.828s2.323.819 2.323 1.828m-2.323-3.828v2m0 7.311v2" class="change-color"></path>
</g>
</svg>
