<svg xmlns="http://www.w3.org/2000/svg" width="24" height="24" viewBox="0 0 24 24" fill="none" >
<g fill="none" fill-rule="evenodd" stroke="#99ADBD" stroke-linecap="round" stroke-linejoin="round" stroke-width="1.9" class="change-color">
<path d="M1.927 3.714h20.146M5 4.714v12.549a3 3 0 003 3h8a3 3 0 003-3V4.714"></path>
<path d="M9.73 13.826c0 1.009 1.041 1.828 2.324 1.828 1.281 0 2.323-.82 2.323-1.828 0-1.01-1.04-1.828-2.323-1.828v.001c-1.283 0-2.323-.819-2.323-1.828 0-1.01 1.04-1.828 2.323-1.828s2.323.819 2.323 1.828m-2.323-3.828v2m0 7.311v2" class="change-color"></path>
</g>
</svg>
